<svg width="128" height="24" viewBox="0 0 128 24" fill="none" xmlns="http://www.w3.org/2000/svg">
<path d="M50.5429 18.4779C49.6261 17.9045 48.8973 17.0753 48.4462 16.0926C47.9303 14.9488 47.6772 13.7039 47.7056 12.4494C47.6761 11.1995 47.9312 9.95921 48.4517 8.82244C48.9084 7.84458 49.6385 7.0199 50.5538 6.44807C51.439 5.93959 52.4337 5.65185 53.4537 5.60919C54.4736 5.56653 55.4889 5.77022 56.4135 6.203C57.1434 6.57372 57.7758 7.111 58.2596 7.7714C58.7145 8.39671 59.0149 9.12075 59.1364 9.88438V9.99874H57.5026L57.4754 9.88438C57.2893 9.11024 56.8528 8.41918 56.2338 7.91844C55.5196 7.34428 54.6226 7.04656 53.7069 7.07978C52.9075 7.06499 52.1228 7.29492 51.4578 7.73873C50.7935 8.20418 50.2743 8.84794 49.9602 9.59575C49.5827 10.497 49.3972 11.467 49.4156 12.4439C49.3953 13.4263 49.5808 14.402 49.9602 15.3084C50.277 16.055 50.8027 16.6942 51.4741 17.1491C52.1458 17.5855 52.9333 17.8094 53.7341 17.7917C54.6196 17.8279 55.49 17.5545 56.1956 17.0184C56.8406 16.5179 57.2927 15.81 57.4754 15.0143L57.5026 14.9H59.1364V15.0035C59.0141 15.7954 58.6959 16.5442 58.2106 17.1818C57.7142 17.8333 57.0703 18.3577 56.3318 18.7121C55.5196 19.0919 54.6305 19.2783 53.7341 19.2566C52.6111 19.284 51.5037 18.9892 50.5429 18.4071" fill="white"/>
<path d="M62.6653 0.702698H60.9825V19.0878H62.6653V0.702698Z" fill="white"/>
<path d="M77.8265 5.83811H79.5092V8.21793H79.5474C79.741 7.46847 80.1613 6.79709 80.7509 6.29556C81.3282 5.82159 82.0573 5.57211 82.804 5.59305C83.0103 5.5935 83.2162 5.61172 83.4193 5.6475C83.5647 5.67113 83.7083 5.70387 83.8496 5.74553V7.37928C83.6899 7.31692 83.5236 7.27307 83.354 7.24858C83.0966 7.20668 82.836 7.18664 82.5752 7.18867C82.004 7.17019 81.4408 7.32596 80.9602 7.63529C80.4797 7.94463 80.1047 8.39286 79.885 8.92044C79.6223 9.53614 79.4942 10.2008 79.5092 10.87V19.0878H77.8265V5.83811Z" fill="white"/>
<path d="M85.3907 5.83811H87.0844V19.0878H85.4016L85.3907 5.83811ZM85.4452 3.1152C85.3406 3.01131 85.2582 2.88728 85.203 2.75061C85.1478 2.61394 85.1209 2.46748 85.1239 2.32011C85.1239 2.03124 85.2386 1.75421 85.4429 1.54995C85.6472 1.3457 85.9242 1.23094 86.2131 1.23094C86.3613 1.22717 86.5088 1.25372 86.6465 1.30897C86.7841 1.36422 86.9091 1.447 87.0136 1.55225C87.1168 1.65486 87.1985 1.77712 87.2536 1.91182C87.3088 2.04651 87.3365 2.1909 87.3349 2.33645C87.3394 2.485 87.3135 2.6329 87.2587 2.77106C87.2039 2.90921 87.1215 3.03469 87.0164 3.13978C86.9113 3.24487 86.7858 3.32734 86.6477 3.38212C86.5095 3.43689 86.3616 3.46281 86.2131 3.45829C86.0671 3.45914 85.9225 3.43065 85.7878 3.37452C85.6531 3.31839 85.531 3.23576 85.4289 3.13154" fill="white"/>
<path d="M91.2232 18.516C90.9271 18.1675 90.703 17.7638 90.5637 17.3283C90.4244 16.8927 90.3728 16.4339 90.4118 15.9782V7.26492H88.4622V5.83811H90.4118V2.25476H92.1435V5.83811H94.7575V7.24858H92.1435V15.9619C92.1145 16.2354 92.1411 16.5119 92.2216 16.7748C92.3021 17.0378 92.4348 17.2818 92.6119 17.4922C93.0047 17.8081 93.5035 17.962 94.006 17.9224C94.1476 17.9224 94.2892 17.9224 94.4199 17.9224L94.7575 17.8897V19.2512C94.6268 19.2784 94.4635 19.3002 94.2674 19.322C94.0667 19.3437 93.8649 19.3546 93.6629 19.3547C93.2208 19.3852 92.7771 19.3268 92.358 19.1827C91.9389 19.0387 91.553 18.8119 91.2232 18.516Z" fill="white"/>
<path d="M109.249 5.83811H110.932V19.0878H109.249V5.83811ZM109.303 3.11519C109.199 3.01131 109.116 2.88727 109.061 2.7506C109.006 2.61393 108.979 2.46748 108.982 2.3201C108.984 2.10081 109.051 1.88697 109.173 1.70528C109.296 1.52359 109.47 1.38209 109.673 1.29845C109.875 1.2148 110.098 1.19272 110.313 1.23495C110.529 1.27717 110.727 1.38185 110.883 1.53591C110.987 1.63806 111.069 1.76012 111.126 1.89483C111.182 2.02955 111.21 2.17417 111.209 2.3201C111.212 2.46787 111.184 2.61456 111.128 2.75125C111.072 2.88794 110.988 3.01177 110.883 3.11519C110.779 3.21893 110.656 3.30122 110.52 3.35737C110.385 3.41352 110.24 3.44241 110.093 3.44241C109.946 3.44241 109.801 3.41352 109.666 3.35737C109.53 3.30122 109.407 3.21893 109.303 3.11519Z" fill="white"/>
<path d="M126.447 17.8189C126.516 17.8233 126.585 17.8041 126.643 17.7645C126.665 17.7446 126.683 17.7202 126.695 17.693C126.707 17.6658 126.714 17.6364 126.714 17.6065C126.714 17.5761 126.707 17.546 126.694 17.5186C126.681 17.4912 126.661 17.4672 126.637 17.4486C126.582 17.4053 126.512 17.384 126.441 17.3887H126.169V17.8189H126.447ZM125.902 17.1818H126.447C126.578 17.173 126.707 17.2116 126.812 17.2907C126.856 17.3303 126.89 17.3792 126.913 17.4338C126.935 17.4885 126.945 17.5475 126.942 17.6065C126.943 17.69 126.917 17.7714 126.868 17.839C126.819 17.9066 126.75 17.9568 126.67 17.9823L126.98 18.5269H126.697L126.42 18.0476H126.147V18.516H125.902V17.1818ZM127.302 17.3125C127.213 17.1543 127.083 17.0232 126.926 16.9331C126.769 16.8429 126.59 16.7971 126.409 16.8006C126.218 16.7949 126.03 16.842 125.864 16.9367C125.71 17.0275 125.582 17.157 125.494 17.3125C125.397 17.477 125.349 17.6662 125.358 17.857C125.356 18.0381 125.401 18.2166 125.49 18.3743C125.579 18.5321 125.708 18.6636 125.864 18.7556C126.03 18.8503 126.218 18.8974 126.409 18.8917C126.59 18.8952 126.769 18.8494 126.926 18.7593C127.083 18.6691 127.213 18.538 127.302 18.3798C127.399 18.2152 127.448 18.0265 127.443 17.8353C127.45 17.6439 127.401 17.4547 127.302 17.2907M127.678 17.8353C127.679 18.0054 127.645 18.174 127.58 18.3308C127.45 18.6346 127.208 18.8766 126.904 19.0061C126.748 19.0726 126.579 19.1059 126.409 19.1041C126.237 19.1053 126.066 19.072 125.908 19.0061C125.756 18.9439 125.619 18.8512 125.505 18.7338C125.389 18.618 125.297 18.4813 125.232 18.3308C125.171 18.1729 125.139 18.0048 125.14 17.8353C125.139 17.6657 125.17 17.4975 125.232 17.3397C125.297 17.1876 125.389 17.049 125.505 16.9313C125.621 16.8173 125.757 16.7267 125.908 16.6644C126.066 16.5986 126.237 16.5652 126.409 16.5664C126.579 16.5646 126.748 16.598 126.904 16.6644C127.054 16.7267 127.191 16.8173 127.307 16.9313C127.425 17.0475 127.517 17.1865 127.58 17.3397C127.646 17.4964 127.679 17.6651 127.678 17.8353Z" fill="white"/>
<path d="M121.976 12.6345V14.1049C121.984 14.7814 121.795 15.4457 121.431 16.0164C121.058 16.5857 120.544 17.0491 119.939 17.3615C119.287 17.6943 118.564 17.8626 117.832 17.8516C117.05 17.8866 116.28 17.6499 115.653 17.1818C115.383 16.9756 115.165 16.7081 115.018 16.4013C114.872 16.0946 114.8 15.7573 114.809 15.4173C114.798 15.0804 114.87 14.7459 115.018 14.4431C115.166 14.1402 115.386 13.8783 115.659 13.6801C116.37 13.2026 117.204 12.9399 118.06 12.9231L121.976 12.6345ZM123.659 19.0878V10.0151C123.679 9.19343 123.47 8.38238 123.054 7.67337C122.647 7.00691 122.055 6.47332 121.35 6.13764C120.529 5.75859 119.633 5.57231 118.73 5.59306C117.838 5.57218 116.952 5.74496 116.132 6.09952C115.435 6.39804 114.828 6.87514 114.373 7.48276C113.936 8.07532 113.667 8.77539 113.595 9.50861V9.66109H115.228L115.256 9.53039C115.316 9.17355 115.446 8.83227 115.64 8.52651C115.834 8.22075 116.086 7.95663 116.383 7.74961C117.076 7.2884 117.898 7.05955 118.73 7.09611C119.61 7.04124 120.477 7.33464 121.143 7.91298C121.437 8.20675 121.666 8.55954 121.814 8.94813C121.963 9.33672 122.027 9.75231 122.003 10.1676V11.3166L117.875 11.5835C116.599 11.5786 115.354 11.9727 114.314 12.7108C113.912 13.0291 113.591 13.4375 113.376 13.9029C113.161 14.3684 113.059 14.8778 113.077 15.3901C113.059 16.1089 113.248 16.8178 113.622 17.4323C113.996 18.0295 114.532 18.5075 115.169 18.8101C115.885 19.1484 116.669 19.3162 117.461 19.3002C118.097 19.3024 118.729 19.188 119.324 18.9626C119.893 18.7457 120.419 18.4284 120.876 18.0259C121.325 17.6507 121.687 17.1825 121.938 16.6535H121.976V19.0878H123.659Z" fill="white"/>
<path d="M73.6985 12.6345V14.1049C73.7092 14.7818 73.5198 15.4467 73.1539 16.0164C72.782 16.5869 72.2677 17.0505 71.6618 17.3615C71.0098 17.6943 70.2862 17.8626 69.5542 17.8516C68.7726 17.8866 68.0029 17.6499 67.3759 17.1818C67.1065 16.975 66.8899 16.7073 66.7441 16.4005C66.5983 16.0938 66.5274 15.7568 66.5373 15.4173C66.5256 15.0809 66.5964 14.7467 66.7436 14.4439C66.8907 14.1411 67.1097 13.8789 67.3814 13.6801C68.0927 13.2026 68.9264 12.9398 69.783 12.9231L73.6985 12.6345ZM75.3813 19.0878V10.0151C75.4019 9.19342 75.1925 8.38236 74.7768 7.67335C74.3711 7.00567 73.7785 6.4717 73.0723 6.13763C72.2523 5.75802 71.3561 5.57171 70.4528 5.59305C69.5605 5.57268 68.6744 5.74545 67.8552 6.09951C67.1584 6.39957 66.552 6.87638 66.0961 7.48275C65.6525 8.07356 65.3777 8.77377 65.3011 9.50859V9.66108H66.9348V9.53038C66.9949 9.17353 67.1256 8.83226 67.3192 8.5265C67.5127 8.22073 67.7653 7.95662 68.0621 7.74959C68.7554 7.28839 69.5774 7.05953 70.4092 7.09609C71.2911 7.04155 72.1591 7.33481 72.8272 7.91297C73.1198 8.20782 73.3471 8.56092 73.4944 8.94933C73.6417 9.33775 73.7057 9.7528 73.6822 10.1675V11.3166L69.5597 11.5835C68.2989 11.5876 67.0701 11.9813 66.0417 12.7107C65.6399 13.0291 65.3187 13.4375 65.1039 13.9029C64.8892 14.3684 64.7869 14.8778 64.8055 15.3901C64.7876 16.1089 64.9766 16.8178 65.3501 17.4323C65.73 18.0451 66.2809 18.5335 66.9348 18.8373C67.6509 19.1756 68.4357 19.3434 69.2275 19.3274C69.8637 19.3296 70.495 19.2152 71.09 18.9898C71.6592 18.7729 72.1849 18.4556 72.642 18.0531C73.0841 17.6682 73.4356 17.1902 73.6713 16.6535H73.7094V19.0878H75.3813Z" fill="white"/>
<path d="M105.056 9.36157C105.362 10.0485 105.532 10.7882 105.557 11.5399H97.3225C97.3583 10.8043 97.532 10.082 97.8344 9.41058C98.0819 8.90106 98.4326 8.4485 98.8641 8.08159C99.2957 7.71468 99.7987 7.44142 100.341 7.27912C100.884 7.11683 101.455 7.06903 102.017 7.13877C102.579 7.20851 103.12 7.39426 103.607 7.68425C104.247 8.09237 104.752 8.67942 105.061 9.37246M107.239 12.8796V12.2043C107.267 11.0077 107.025 9.82023 106.531 8.72985C106.102 7.78197 105.408 6.97827 104.533 6.41538C103.597 5.87106 102.532 5.58705 101.449 5.5928C100.366 5.59854 99.304 5.89383 98.3736 6.44805C97.4835 7.04332 96.7794 7.87763 96.3423 8.8551C95.8353 9.99762 95.5861 11.2378 95.6125 12.4875C95.5817 13.7393 95.831 14.9822 96.3423 16.1253C96.7819 17.1101 97.504 17.9421 98.4171 18.516C99.3867 19.0898 100.498 19.3786 101.625 19.3492C102.298 19.3543 102.968 19.257 103.612 19.0606C104.198 18.8825 104.75 18.6082 105.246 18.2492C105.711 17.9065 106.11 17.482 106.422 16.9966C106.731 16.5214 106.949 15.9934 107.065 15.4391L107.092 15.3139H105.459L105.42 15.4282C105.279 15.902 105.029 16.3364 104.691 16.6971C104.337 17.0666 103.903 17.3498 103.422 17.5249C102.869 17.7337 102.281 17.8354 101.69 17.8244C100.881 17.8424 100.084 17.635 99.3865 17.2253C98.7188 16.8108 98.1884 16.2083 97.8617 15.4936C97.4952 14.6674 97.3096 13.7724 97.3171 12.8687H107.234L107.239 12.8796Z" fill="white"/>
<path d="M30.0666 14.0885C29.5541 16.2826 28.2528 18.2116 26.4103 19.5084C24.5678 20.8052 22.3128 21.3793 20.0745 21.1214C17.8362 20.8634 15.7708 19.7915 14.2716 18.1096C12.7724 16.4276 11.9439 14.2532 11.9439 12.0001C11.9439 9.74696 12.7724 7.5725 14.2716 5.89058C15.7708 4.20867 17.8362 3.13672 20.0745 2.87878C22.3128 2.62083 24.5678 3.1949 26.4103 4.49171C28.2528 5.78853 29.5541 7.71754 30.0666 9.91159C30.0866 10.0033 30.1376 10.0853 30.211 10.1438C30.2844 10.2024 30.3757 10.2338 30.4696 10.2329H41.6825C41.744 10.2333 41.8049 10.22 41.8606 10.1939C41.9163 10.1679 41.9655 10.1297 42.0046 10.0823C42.0437 10.0348 42.0718 9.9792 42.0867 9.91954C42.1017 9.85987 42.1031 9.79763 42.091 9.73733C41.5683 6.99576 40.1049 4.52268 37.9534 2.74498C35.8018 0.96727 33.0972 -0.00351394 30.3062 0.000193097H12.0681C10.4923 -0.00874638 8.93012 0.292788 7.47081 0.887579C6.01149 1.48237 4.68362 2.35877 3.56301 3.46674C2.4424 4.57471 1.55099 5.89255 0.93968 7.34502C0.32837 8.79749 0.00913255 10.3561 0.000193096 11.932C-0.00874635 13.5078 0.292788 15.07 0.887579 16.5293C1.48237 17.9886 2.35877 19.3165 3.46674 20.4371C4.57471 21.5577 5.89255 22.4491 7.34502 23.0605C8.79749 23.6718 10.3561 23.991 11.932 23.9999H30.2844C33.0799 24.0085 35.7903 23.0393 37.9465 21.26C40.1026 19.4808 41.5687 17.0036 42.091 14.2574C42.1021 14.1972 42.0999 14.1353 42.0846 14.0761C42.0693 14.0168 42.0412 13.9616 42.0022 13.9144C41.9633 13.8672 41.9145 13.829 41.8593 13.8027C41.8041 13.7763 41.7437 13.7624 41.6825 13.7618H30.4478C30.3534 13.7622 30.262 13.7948 30.1888 13.8542C30.1155 13.9136 30.0647 13.9963 30.0448 14.0885" fill="white"/>
</svg>
